<?xml version="1.0" encoding="UTF-8"?>
<svg width="143px" height="120px" viewBox="0 0 143 120" version="1.1" xmlns="http://www.w3.org/2000/svg" xmlns:xlink="http://www.w3.org/1999/xlink">
    <!-- Generator: Sketch 64 (93537) - https://sketch.com -->
    <title>Logos / COVID-19-logo</title>
    <desc>Created with Sketch.</desc>
    <g id="Logos-/-COVID-19-logo" stroke="none" stroke-width="1" fill="none" fill-rule="evenodd">
        <g id="lockup" fill-rule="nonzero">
            <rect id="Rectangle" fill="#FFFFFF" x="0" y="0" width="143" height="119.922581"></rect>
            <rect id="Rectangle" fill="#FFCC00" x="15.5066967" y="77.5698925" width="111.728949" height="24.7010753"></rect>
            <path d="M123.22048,89.5053763 L123.22048,90.8387097 C123.22048,95.4537634 121.300931,97.7204301 117.783904,97.7204301 C115.464985,97.7204301 113.974865,96.5462366 113.283483,95.1053763 C113.201892,95.0494624 112.536276,95.372043 112.536276,95.8494624 C112.60854,96.4170573 112.883034,96.9394192 113.309249,97.3204301 C114.168108,98.1806452 115.705465,98.8387097 117.783904,98.8387097 C122.078198,98.8387097 124.525946,96.0903226 124.525946,90.7827957 L124.525946,88.8301075 C124.525946,83.7892473 121.889249,81.0408602 117.947087,81.0408602 C114.481592,81.0408602 111.978018,83.6215054 111.978018,86.855914 L111.978018,87.0193548 C111.978018,90.111828 114.266877,92.1806452 117.783904,92.1806452 C119.914527,92.226595 121.937336,91.2439995 123.22048,89.5397849 M117.891261,91.0623656 C114.988318,91.0623656 113.257718,89.5139785 113.257718,86.9247312 L113.257718,86.7655914 C113.257718,84.1849462 115.228799,82.172043 117.981441,82.172043 C120.987447,82.172043 122.937057,84.3225806 123.177538,88.1935484 C122.297207,89.7634409 120.244535,91.0752688 117.874084,91.0752688 M106.949399,98.6795699 L107.138348,98.6795699 C107.511952,98.6795699 107.722372,98.4903226 107.722372,98.0645161 L107.722372,81.8924731 C107.722372,81.4623656 107.511952,81.2516129 107.112583,81.2516129 L106.55003,81.2516129 C106.497092,82.4354481 105.521617,83.3669331 104.338468,83.3634409 C103.752944,83.4007437 103.185893,83.1504624 102.818288,82.6924731 C102.547166,82.8293449 102.379721,83.1110971 102.388859,83.4150538 C102.387129,83.698624 102.503913,83.96999 102.710931,84.1634409 C103.12472,84.5399349 103.673204,84.7323627 104.231111,84.6967742 C105.098778,84.719304 105.914328,84.2831122 106.378258,83.5483871 L106.378258,98.0645161 C106.378258,98.4946237 106.567207,98.6795699 106.936517,98.6795699 M94.7364264,92.5677419 L100.623904,92.5677419 C101.023273,92.5677419 101.233694,92.4086022 101.233694,92.0602151 L101.233694,91.9268817 C101.233694,91.5526882 101.023273,91.3935484 100.623904,91.3935484 L94.7664865,91.3935484 C94.3628228,91.3935484 94.1524024,91.5526882 94.1524024,91.9268817 L94.1524024,92.0602151 C94.1524024,92.4086022 94.3628228,92.5677419 94.7664865,92.5677419 M78.8045946,97.3763441 L78.8045946,82.4602151 L82.3473874,82.4602151 C87.4103604,82.4602151 90.3691291,85.2903226 90.3691291,89.9053763 C90.3691291,94.6021505 87.4361261,97.3763441 82.2958559,97.3763441 L78.8045946,97.3763441 Z M78.2721021,98.5505376 L82.2142643,98.5505376 C88.1833333,98.5505376 91.7518919,95.2688172 91.7518919,89.8795699 C91.7518919,84.4903226 88.2649249,81.2773618 82.3473874,81.2773618 L78.2721021,81.2773618 C78.061793,81.2748388 77.8597147,81.3591661 77.7134503,81.5105446 C77.5671858,81.6619232 77.4896605,81.8669759 77.4991291,82.0774194 L77.4991291,97.7419355 C77.4896605,97.9523789 77.5671858,98.1574316 77.7134503,98.3088102 C77.8597147,98.4601888 78.061793,98.544516 78.2721021,98.5419355 M72.2600901,98.6236559 L72.449039,98.6236559 C72.8183483,98.6236559 73.0072973,98.4344086 73.0072973,98.0086022 L73.0072973,81.8193548 C73.0072973,81.4193548 72.8183483,81.2043011 72.449039,81.2043011 L72.2600901,81.2043011 C71.8864865,81.2043011 71.7018318,81.4193548 71.7018318,81.8193548 L71.7018318,98.0172043 C71.7018318,98.4473118 71.8864865,98.6322581 72.2600901,98.6322581 M61.4427628,98.6580645 C62.001021,98.6580645 62.18997,98.4989247 62.3016216,98.1763441 L68.8804805,81.6043011 C68.9620721,81.3935484 67.7897297,80.6967742 67.3645946,81.8451613 L61.4212913,97.1655914 L55.5037538,81.8451613 C55.0743243,80.6967742 53.8805105,81.4150538 53.932042,81.6043011 L60.5495495,98.1763441 C60.6826727,98.4989247 60.8673273,98.6580645 61.4556456,98.6580645 M44.2312312,97.6731183 C39.9927628,97.6731183 37.0898198,94.3870968 37.0898198,89.9311828 C37.0898198,85.4752688 39.9841742,82.1505376 44.2312312,82.1505376 C48.4782883,82.1505376 51.3683483,85.483871 51.3683483,89.9139785 C51.3683483,94.344086 48.4911712,97.655914 44.256997,97.655914 M44.2011712,98.8 C49.2899099,98.8 52.7296396,95.0666667 52.7296396,89.888172 C52.7296396,84.7096774 49.31997,81.0021505 44.256997,81.0021505 C39.194024,81.0021505 35.7285285,84.7655914 35.7285285,89.9397849 C35.7285285,95.1139785 39.1424925,98.8 44.2011712,98.8 M26.7491592,98.8 C29.3600901,98.8 31.3054054,97.8150538 32.3317417,96.7741935 C32.9373236,96.2448725 33.3472743,95.5267047 33.4954955,94.7354839 C33.4634358,94.2881913 33.0841221,93.9462698 32.6366366,93.9612903 C31.9967868,95.883871 29.9956456,97.6731183 26.8264565,97.6731183 C22.5321622,97.6731183 19.6335135,94.3870968 19.6335135,89.9311828 C19.6335135,85.4752688 22.5063964,82.1505376 26.7148048,82.1505376 C29.3515015,82.1505376 31.5115315,83.5354839 32.4176276,85.4580645 C32.6260586,85.4546703 32.8246032,85.368471 32.9695698,85.2184357 C33.1145363,85.0684004 33.1940455,84.8668237 33.1906006,84.6580645 C33.0774027,84.0290932 32.7586578,83.4556569 32.2845045,83.027957 C31.2710511,82.0172043 29.4588589,81.0021505 26.7706306,81.0021505 C21.7076577,81.0021505 18.2163964,84.7397849 18.2163964,89.9397849 C18.2163964,95.1397849 21.6260661,98.8 26.7405706,98.8" id="Shape" fill="#231F20"></path>
            <path d="M115.821411,53.8795699 L115.821411,62.7225806 C115.821411,66.344086 117.384535,68.2580645 120.824264,68.2580645 C123.289189,68.2580645 124.714895,67.0021505 124.714895,65.716129 C124.714895,64.6365591 123.856036,64.1505376 123.744384,64.2537634 C123.199767,65.0137186 122.316299,65.4561504 121.382523,65.4365591 C119.746396,65.4365591 119.158078,64.4258065 119.158078,62.3397849 L119.158078,53.8795699 L122.945646,53.8795699 C124.019219,53.8795699 124.44006,53.4494624 124.44006,52.5591398 L124.44006,52.3139785 C124.44006,51.4795699 124.057868,51.0623656 122.98,51.0623656 L119.192432,51.0623656 L119.192432,48.4817204 C119.192432,47.1913978 118.59982,46.8430108 117.698018,46.8430108 L117.35018,46.8430108 C116.40973,46.8430108 115.821411,47.2989247 115.821411,48.4817204 L115.821411,51.0623656 L114.601832,51.0623656 C113.523964,51.0623656 113.107417,51.4924731 113.107417,52.3526882 L113.107417,52.5978495 C113.107417,53.4322581 113.536847,53.888172 114.601832,53.888172 L115.821411,53.8795699 Z M104.282643,68.2236559 C108.576937,68.2236559 111.230811,66.1677419 111.230811,62.9677419 C111.230811,59.3462366 107.653664,58.5806452 105.081381,58.0215054 C102.371682,57.4322581 100.911622,57.083871 100.911622,55.5526882 C100.911622,54.1591398 102.161261,53.255914 104.523123,53.255914 C106.43951,53.2170366 108.259546,54.09574 109.422913,55.6215054 C109.495916,55.7247312 110.814264,55.0967742 110.814264,54.0215054 C110.814264,52.4516129 108.667117,50.6451613 104.372823,50.6451613 C100.306126,50.6451613 97.6994895,52.7655914 97.6994895,55.9010753 C97.6994895,59.4494624 101.104865,60.2021505 103.574084,60.7354839 C106.318138,61.3290323 107.868378,61.6430108 107.868378,63.3462366 C107.868378,64.7397849 106.55003,65.6129032 104.183874,65.6129032 C101.547177,65.6129032 99.6705706,64.5333333 98.5540541,63.1053763 C97.811809,63.2780822 97.2654251,63.9104561 97.2013514,64.6709677 C97.2013514,66.2709677 99.5975676,68.2236559 104.256877,68.2236559 M82.3259159,53.6 C82.2228529,51.4064516 81.1793393,50.8817204 80.1787688,50.8817204 C79.4830931,50.8817204 78.9291291,51.1612903 78.9291291,51.2645161 L78.9291291,66.3182796 C78.9291291,67.5741935 79.5560961,67.9569892 80.4578979,67.9569892 L80.8400901,67.9569892 C81.6989489,67.9569892 82.3688589,67.5741935 82.3688589,66.3182796 L82.3688589,56.5978495 C83.2153709,54.7764787 85.0571381,53.6288306 87.0625225,53.6731183 C89.4930931,53.6731183 90.9273874,55.3935484 90.9273874,58.2322581 L90.9273874,66.3053763 C90.9273874,67.5612903 91.5543544,67.944086 92.4561562,67.944086 L92.8383483,67.944086 C93.6972072,67.944086 94.3671171,67.5612903 94.3671171,66.3053763 L94.3671171,57.8150538 C94.3671171,53.6731183 92.3187387,50.6451613 87.9042042,50.6451613 C85.6626393,50.5949386 83.5562697,51.7157653 82.3430931,53.6043011 M73.62997,67.9569892 L73.9778078,67.9569892 C74.8796096,67.9569892 75.5065766,67.5741935 75.5065766,66.3182796 L75.5065766,52.5548387 C75.5065766,51.2645161 74.8796096,50.8817204 73.9778078,50.8817204 L73.62997,50.8817204 C72.7281682,50.8817204 72.0668468,51.311828 72.0668468,52.5548387 L72.0668468,66.3182796 C72.0668468,67.5741935 72.7281682,67.9569892 73.62997,67.9569892 M73.806036,47.488172 C75.1243844,47.488172 75.8544144,46.8258065 75.8544144,45.5741935 C75.8544144,44.3225806 75.1243844,43.6258065 73.8360961,43.6258065 C72.5478078,43.6258065 71.7533634,44.3225806 71.7533634,45.5741935 C71.7533634,46.8258065 72.5177477,47.488172 73.806036,47.488172 M65.1873874,57.7462366 L64.7364865,57.7462366 C57.1914114,57.883871 53.5069069,59.5526882 53.5069069,63.4193548 C53.5069069,66.2709677 55.6282883,68.1849462 59.2097297,68.1849462 C61.7863063,68.1849462 63.9678078,67.0752688 65.2217417,65.2645161 C65.2560961,67.316129 66.1235435,67.9784946 67.3388288,67.9784946 C67.9657958,67.9784946 68.5927628,67.7677419 68.5927628,67.5956989 L68.5927628,57.3290323 C68.5927628,53.0795699 66.0161862,50.6451613 61.2924625,50.6451613 C56.5687387,50.6451613 54.1338739,53.0451613 54.1338739,54.6451613 C54.1338739,56.3182796 56.2552553,56.3655914 56.2552553,56.3182796 C57.0196396,54.7870968 58.5140541,53.4623656 61.051982,53.4623656 C63.7273273,53.4623656 65.1873874,54.855914 65.1873874,57.3978495 L65.1873874,57.7462366 Z M60.0342342,65.716129 C58.0545646,65.716129 56.8693393,64.7741935 56.8693393,63.2774194 C56.8693393,61.0150538 59.3729129,60.111828 64.2383483,59.9354839 L65.1787988,59.9010753 L65.1787988,61.1913978 C65.1787988,63.8365591 63.0316517,65.716129 60.0256456,65.716129 M47.6666667,51.6516129 C46.4390262,50.9864928 45.0644115,50.6404479 43.6686787,50.6451613 C39.5332733,50.6451613 36.5100901,53.4623656 36.5100901,56.9763441 C36.5100901,59.5870968 38.2278078,61.6774194 40.8902703,62.5462366 C40.3185319,62.9770092 39.9688843,63.6411267 39.9369369,64.3569892 C39.9174919,64.959196 40.1736837,65.5373296 40.6326126,65.9268817 C37.5750751,66.4473118 35.2819219,68.0774194 35.2819219,70.5204301 C35.2819219,73.6516129 37.8885586,75.1483871 43.5183784,75.1483871 C49.0451351,75.1483871 52.2744444,73.2 52.2744444,70.0301075 C52.2744444,67.2817204 49.7708709,66.0989247 47.409009,65.4709677 C44.4888889,64.7397849 42.8914114,64.6365591 42.8914114,63.5569892 C42.883338,63.3350172 42.9432791,63.1158866 43.0631832,62.9290323 C43.2705534,62.9610852 43.4804194,62.9740426 43.6901502,62.9677419 C47.9286186,62.9677419 50.9217417,60.3870968 50.9217417,56.8731183 C50.919919,55.487897 50.4129047,54.1510591 49.496036,53.1139785 L52.3087988,50.1892473 C52.4161562,50.1204301 51.8235435,48.7268817 50.5352553,48.7268817 C49.6763964,48.7268817 49.1138438,49.1569892 48.5555856,50.0516129 L47.6666667,51.6516129 Z M43.703033,60.683871 C41.4098799,60.683871 39.778048,59.1483871 39.778048,56.8860215 C39.778048,54.6236559 41.3755255,53.0924731 43.6429129,53.0924731 C46.0047748,53.0924731 47.6065465,54.6580645 47.6065465,56.8860215 C47.6065465,59.1139785 46.0047748,60.683871 43.7116216,60.683871 M43.8146847,67.4365591 C46.2839039,68.0602151 48.9678378,68.4086022 48.9678378,70.116129 C48.9678378,71.8236559 46.9881682,72.7268817 43.6171471,72.7268817 C40.3148348,72.7268817 38.61,71.888172 38.61,70.3956989 C38.61,68.6193548 41.0105105,67.6086022 43.8232733,67.4365591 M30.0128228,57.7462366 L29.5833934,57.7462366 C22.0426126,57.883871 18.3581081,59.5526882 18.3581081,63.4193548 C18.3581081,66.2709677 20.4794895,68.1849462 24.0609309,68.1849462 C26.6375075,68.1849462 28.819009,67.0752688 30.0729429,65.2645161 C30.1072973,67.316129 30.9747447,67.9784946 32.19003,67.9784946 C32.816997,67.9784946 33.443964,67.7677419 33.443964,67.5956989 L33.443964,57.3290323 C33.443964,53.0795699 30.8673874,50.6451613 26.1436637,50.6451613 C21.4199399,50.6451613 18.9850751,53.0451613 18.9850751,54.6451613 C18.9850751,56.3182796 21.1064565,56.3655914 21.1064565,56.3182796 C21.9867649,54.4891259 23.8738783,53.3645542 25.8988889,53.4623656 C28.5785285,53.4623656 30.0342943,54.855914 30.0342943,57.3978495 L30.0128228,57.7462366 Z M24.8596697,65.716129 C22.88,65.716129 21.6947748,64.7741935 21.6947748,63.2774194 C21.6947748,61.0150538 24.1983483,60.111828 29.0637838,59.9354839 L29.9999399,59.9010753 L29.9999399,61.1913978 C29.9999399,63.8365591 27.8527928,65.716129 24.8467868,65.716129" id="Shape" fill="#231F20"></path>
            <path d="M111.162102,32.5075269 L123.465255,32.5075269 C124.263994,32.5075269 124.508769,32.227957 124.508769,31.4967742 L124.508769,31.2215054 C124.508769,26.2064516 121.30952,22.7956989 116.478438,22.7956989 C111.544294,22.7956989 107.928498,26.5892473 107.928498,31.6731183 C107.928498,36.8946237 111.475586,40.4086022 116.757568,40.4086022 C121.30952,40.4086022 123.881802,38.0774194 123.881802,36.6150538 C123.881802,35.1526882 122.142613,34.8387097 122.073904,34.8946237 C121.215045,36.3870968 119.746396,37.6774194 116.826276,37.6774194 C113.665676,37.6774194 111.406877,35.5526882 111.162102,32.4903226 M111.162102,30.1591398 C111.591532,27.3763441 113.70003,25.3892473 116.444084,25.3892473 C119.188138,25.3892473 120.996036,27.2688172 121.167808,30.1591398 L111.162102,30.1591398 Z M97.5406006,26.0172043 L97.5406006,34.8774194 C97.5406006,38.4946237 99.1037237,40.4086022 102.543453,40.4086022 C105.012673,40.4086022 106.438378,39.1569892 106.438378,37.8666667 C106.438378,36.7913978 105.57952,36.3010753 105.463574,36.4043011 C104.921412,37.1676479 104.036788,37.6122698 103.101712,37.5913978 C101.465586,37.5913978 100.877267,36.5806452 100.877267,34.4946237 L100.877267,26.0344086 L104.664835,26.0344086 C105.742703,26.0344086 106.159249,25.5827957 106.159249,24.7096774 L106.159249,24.4688172 C106.159249,23.6086022 105.777057,23.2129032 104.699189,23.2129032 L100.915916,23.2129032 L100.915916,20.6451613 C100.915916,19.3548387 100.323303,19.0107527 99.4215015,19.0107527 L99.0736637,19.0107527 C98.1332132,19.0107527 97.5448949,19.4408602 97.5448949,20.6451613 L97.5448949,23.2258065 L96.321021,23.2258065 C95.2474474,23.2258065 94.8266066,23.6817204 94.8266066,24.516129 L94.8266066,24.7569892 C94.8266066,25.5956989 95.256036,26.0473118 96.321021,26.0473118 L97.5406006,26.0172043 Z M89.9955255,40.0946237 L90.3433634,40.0946237 C91.2494595,40.0946237 91.8721321,39.716129 91.8721321,38.4602151 L91.8721321,24.6967742 C91.8721321,23.4064516 91.2494595,23.027957 90.3433634,23.027957 L89.9955255,23.027957 C89.0937237,23.027957 88.4324024,23.4580645 88.4324024,24.6967742 L88.4324024,38.4602151 C88.4324024,39.716129 89.0937237,40.0946237 89.9955255,40.0946237 M90.1801802,19.6301075 C91.5028228,19.6301075 92.2328529,18.9677419 92.2328529,17.716129 C92.2328529,16.4645161 91.5028228,15.7677419 90.2145345,15.7677419 C88.9262462,15.7677419 88.1275075,16.4602151 88.1275075,17.716129 C88.1275075,18.972043 88.8918919,19.6301075 90.1801802,19.6301075 M72.2042643,25.7548387 C72.1012012,23.5612903 71.0576877,23.0408602 70.0571171,23.0408602 C69.3614414,23.0408602 68.8074775,23.3204301 68.8074775,23.4236559 L68.8074775,38.4774194 C68.8074775,39.7333333 69.4344444,40.111828 70.3362462,40.111828 L70.7184384,40.111828 C71.5772973,40.111828 72.2472072,39.7333333 72.2472072,38.4774194 L72.2472072,28.7483871 C73.0864905,26.9224299 74.9256677,25.7675412 76.9322823,25.8064516 C79.3628529,25.8064516 80.7971471,27.5483871 80.7971471,30.3698925 L80.7971471,38.4602151 C80.7971471,39.716129 81.4241141,40.0946237 82.3259159,40.0946237 L82.7081081,40.0946237 C83.566967,40.0946237 84.2368769,39.716129 84.2368769,38.4602151 L84.2368769,29.9655914 C84.2368769,25.8236559 82.1884985,22.7956989 77.7954354,22.7956989 C75.5463023,22.7379055 73.4300441,23.859663 72.2128529,25.7548387 M55.3577477,40.3784946 C61.3354054,40.3784946 64.5647147,37.0021505 64.5647147,30.7354839 L64.5647147,18.9247312 C64.5647147,17.8107527 64.0794595,17.2903226 63.0745946,17.2903226 L62.5163363,17.2903226 C61.5114715,17.2903226 60.9875676,17.8107527 60.9875676,18.9247312 L60.9875676,30.6623656 C60.9875676,35.0494624 59.1796697,37.2086022 55.404985,37.2086022 C51.6861261,37.2086022 49.8224024,34.9806452 49.8224024,30.6967742 L49.8224024,18.9247312 C49.8224024,17.8451613 49.3027928,17.2903226 48.2592793,17.2903226 L47.774024,17.2903226 C46.7992192,17.2903226 46.240961,17.8451613 46.240961,18.9247312 L46.240961,30.7956989 C46.240961,37.0580645 49.4058559,40.3655914 55.3835135,40.3655914" id="Shape" fill="#231F20"></path>
        </g>
    </g>
</svg>