<svg xmlns="http://www.w3.org/2000/svg" viewBox="0 0 324.27 33.03"><defs><style>.cls-1{fill:#20201e;}</style></defs><g id="Layer_2" data-name="Layer 2"><g id="Layer_1-2" data-name="Layer 1"><path class="cls-1" d="M0,31.41s40.9-4.62,79.58-4.62c39.51,0,80.65,4.62,80.65,4.62V33s-41.41-4.37-80.64-4.37C40.9,28.66,0,33,0,33V31.41Zm15.73-7.54H12.2L6,11.35A63.18,63.18,0,0,1,3.14,4.89l-.21,0c.17,2,.24,4.38.28,6.57l.13,12.38H2.05c-1.49,0-2-1.44-2-3.07V.31H3.86l6.56,13A44.29,44.29,0,0,1,12.75,19l.21-.07c-.07-.69-.35-4.41-.35-7L12.55.31h3.18V23.87Zm58.63-2.45-.82,2.73H59.48V21.62L69,6.6a22.55,22.55,0,0,1,1.67-2.43c-.68.07-1.54.1-2.7.1H59.89l.79-2.73H74.22V4.17l-9.41,15c-.51.89-1.06,1.58-1.47,2.26.72,0,1.51,0,2.36,0Zm108.15.63a13.51,13.51,0,0,1-7,1.89,9.28,9.28,0,0,1-7.46-3.19c-1.88-2.18-2.74-5-2.74-8.82a12.28,12.28,0,0,1,4.07-9.24,8.84,8.84,0,0,1,5.92-2A9.82,9.82,0,0,1,182,3l-1.57,2.05a8.06,8.06,0,0,0-5-1.78,5.36,5.36,0,0,0-5.06,3A10.76,10.76,0,0,0,169,12.1c0,3.25.58,5.68,1.67,7.12a6.54,6.54,0,0,0,5.07,2.12,7,7,0,0,0,3.48-.89V13.74h-4.34l-.55-2.7h8.14v11Zm17.15-6.87c0,5.44-2.91,8.89-7.46,8.89s-7.42-3.49-7.42-9.06,2.84-9,7.36-9c5.06,0,7.52,4,7.52,9.2Zm-3.52.14c0-5.31-1.54-6.91-4-6.91-2.74,0-3.87,1.95-3.87,6.26,0,5.23,1.34,7,4,7,2.4,0,3.87-1.84,3.87-6.32Zm19.25-8.86-6.25,17.27h-2.95l-6.12-17.2L203.32,6l3.39,10.37c.37,1.16.75,2.53,1,3.69.28-1,.62-2.36,1.1-3.76l3.25-9.85Zm14.33,9.23H219.28v.41a6.47,6.47,0,0,0,.72,3.42,4.47,4.47,0,0,0,3.94,2,6.06,6.06,0,0,0,4.2-1.64l1.2,1.88A8.76,8.76,0,0,1,223.42,24c-4.75,0-7.66-3.46-7.66-9.06,0-3,.58-4.9,2.05-6.64A6.39,6.39,0,0,1,223,5.91a6.2,6.2,0,0,1,4.65,1.85c1.5,1.54,2.05,3.45,2.09,7.39v.54Zm-3.29-2.32a6.23,6.23,0,0,0-1.06-3.87,3.08,3.08,0,0,0-2.46-1.2c-2.39,0-3.59,1.95-3.59,5.07Zm14.72-7.29-1.1,3.15a2.34,2.34,0,0,0-.88-.17,3.58,3.58,0,0,0-3.56,3.49v11h-3.15V11a11,11,0,0,0-.65-4.28l3.05-.79a7.26,7.26,0,0,1,.58,2.64v.31c1.36-2,2.84-3,4.65-3a3.18,3.18,0,0,1,1.06.17Zm15,17.51h-3.11V12c0-1.54-.14-2.08-.55-2.63a2.1,2.1,0,0,0-1.74-.69,6.92,6.92,0,0,0-4.24,2.19V23.59h-3.12V10.84a9.38,9.38,0,0,0-.65-4.08l3-.82a5.46,5.46,0,0,1,.58,2.64,15.54,15.54,0,0,1,2.22-1.68,6.38,6.38,0,0,1,3.18-.85,4.27,4.27,0,0,1,4,2.43,5.39,5.39,0,0,1,.41,2.15v13Zm24.63,0h-3.12V11.31c0-2-.61-2.63-2.05-2.63s-2.7,1-4,2.33V23.59h-3.08V11.38c0-1.91-.55-2.63-2.12-2.63a5.89,5.89,0,0,0-3.93,2V23.59h-3.12V11a9.35,9.35,0,0,0-.61-4.28L261.71,6a4.88,4.88,0,0,1,.58,2.4A7,7,0,0,1,267.12,6a4.43,4.43,0,0,1,4.07,2.7A7.32,7.32,0,0,1,276.42,6c2.67,0,4.38,1.67,4.38,4.82V23.59Zm16.38-7.9H286.75v.41a6.48,6.48,0,0,0,.71,3.42,4.48,4.48,0,0,0,3.94,2,6.09,6.09,0,0,0,4.21-1.64l1.19,1.88A8.74,8.74,0,0,1,290.88,24c-4.75,0-7.66-3.46-7.66-9.06,0-3,.58-4.9,2.06-6.64a6.36,6.36,0,0,1,5.16-2.36,6.18,6.18,0,0,1,4.65,1.85c1.51,1.54,2.05,3.45,2.09,7.39v.54Zm-3.29-2.32a6.23,6.23,0,0,0-1.06-3.87,3.07,3.07,0,0,0-2.46-1.2c-2.39,0-3.59,1.95-3.59,5.07Zm18.79,10.22h-3.11V12c0-1.54-.14-2.08-.55-2.63a2.1,2.1,0,0,0-1.74-.69A6.89,6.89,0,0,0,303,10.9V23.59h-3.12V10.84a9.38,9.38,0,0,0-.65-4.08l3-.82a5.46,5.46,0,0,1,.58,2.64,16.12,16.12,0,0,1,2.22-1.68,6.35,6.35,0,0,1,3.18-.85,4.27,4.27,0,0,1,4,2.43,5.39,5.39,0,0,1,.41,2.15v13ZM324.27,6.46l-.86,2.22H320V19c0,2.12.51,2.77,2.22,2.77a3.79,3.79,0,0,0,1.61-.34l.37,1.91a6.78,6.78,0,0,1-3.11.72,4.77,4.77,0,0,1-2.91-.85c-.71-.65-1.26-1-1.26-3.49v-11H314.9V6.46H317a37.36,37.36,0,0,1,.2-4.38l3.25-.75c-.13,1.23-.3,3.38-.3,5.13ZM32.07,15.69H21.59v.41a6.55,6.55,0,0,0,.72,3.44,4.5,4.5,0,0,0,4,2,6.11,6.11,0,0,0,4.23-1.65l1.21,1.89A8.86,8.86,0,0,1,25.75,24c-4.78,0-7.7-3.48-7.7-9.11,0-3,.58-4.92,2.06-6.67A6.41,6.41,0,0,1,25.3,5.86,6.25,6.25,0,0,1,30,7.71c1.51,1.55,2.06,3.48,2.09,7.43v.55Zm-3.3-2.34a6.27,6.27,0,0,0-1.06-3.88,3.1,3.1,0,0,0-2.48-1.21c-2.4,0-3.61,2-3.61,5.09ZM55.83,6.41,51,23.77H48l-2.51-9.39c-.31-1.2-1.06-4.05-1.06-4.05h-.11s-.68,2.92-.92,3.85l-2.58,9.59h-3L33,6.54,36.24,6l2.2,9.66c.38,1.72.89,4.23.89,4.23h.11s.38-2.44.79-3.92l2.61-9.59h3.27l2.4,9.31c.48,1.86,1,4,1,4.2h.14c0-.18.55-3,.79-4.09l2.13-9.42ZM87.9,15.69H77.42v.41a6.55,6.55,0,0,0,.72,3.44,4.52,4.52,0,0,0,4,2,6.1,6.1,0,0,0,4.22-1.65l1.21,1.89a8.86,8.86,0,0,1-6,2.2c-4.78,0-7.7-3.48-7.7-9.11,0-3,.58-4.92,2.06-6.67a6.41,6.41,0,0,1,5.19-2.37,6.25,6.25,0,0,1,4.68,1.85c1.51,1.55,2.06,3.48,2.09,7.43v.55Zm-3.3-2.34a6.27,6.27,0,0,0-1.06-3.88,3.1,3.1,0,0,0-2.48-1.21c-2.4,0-3.6,2-3.6,5.09Zm19.54,8.87-1.62,2.13a3.93,3.93,0,0,1-2.3-2.47,6,6,0,0,1-4.88,2.26c-3.44,0-5.57-1.75-5.57-5.05,0-4,3.2-6.12,8.76-6.12.42,0,.76,0,1.21,0V11.87c0-2-.28-3.4-2.68-3.4a9.48,9.48,0,0,0-5.3,2L90.32,8.16a13.56,13.56,0,0,1,7.22-2.27c2.51,0,4.33.93,5,2.75a7.75,7.75,0,0,1,.35,3c0,1.23-.14,3.88-.14,6.39s.07,3.33,1.41,4.16Zm-4.47-7c-.48,0-.76-.07-1-.07-2.37,0-3.82.45-4.51,1.24a3.34,3.34,0,0,0-.89,2.51c0,1.89,1,3,2.72,3a4.3,4.3,0,0,0,3.61-2.27l.1-4.4Zm12,8.42a4.55,4.55,0,0,1-2,.38,2.93,2.93,0,0,1-2.68-1.3c-.52-.73-.65-1.31-.65-3v-14A22.7,22.7,0,0,0,106,.69l3.3-.69a21.31,21.31,0,0,1,.31,4.92V18.85c0,1.82.1,2.23.44,2.54a1.13,1.13,0,0,0,1.07.24l.55,2Zm15.69-1.37-1.62,2.13a3.93,3.93,0,0,1-2.3-2.47,6,6,0,0,1-4.88,2.26c-3.44,0-5.57-1.75-5.57-5.05,0-4,3.2-6.12,8.76-6.12.42,0,.76,0,1.21,0V11.87c0-2-.28-3.4-2.68-3.4a9.48,9.48,0,0,0-5.3,2l-1.44-2.27a13.56,13.56,0,0,1,7.22-2.27c2.51,0,4.33.93,5,2.75a7.8,7.8,0,0,1,.34,3c0,1.23-.13,3.88-.13,6.39s.07,3.33,1.41,4.16Zm-4.47-7c-.48,0-.76-.07-1-.07-2.37,0-3.82.45-4.51,1.24a3.34,3.34,0,0,0-.89,2.51c0,1.89,1,3,2.72,3a4.3,4.3,0,0,0,3.61-2.27l.1-4.4Zm36.75,8.46h-3a7.25,7.25,0,0,1-.31-1.62,5.74,5.74,0,0,1-4.43,1.89c-4.4,0-7-3.3-7-8.73,0-3.71,1.27-6.56,3.61-8.08a6,6,0,0,1,3.37-1,5.12,5.12,0,0,1,4.19,2c0-.48-.07-3.11-.07-4.28V.24l3.17.52V17.85a20.61,20.61,0,0,0,.48,5.78ZM156,19.26v-9a4.42,4.42,0,0,0-3.65-1.62,3.38,3.38,0,0,0-3,1.75,9.21,9.21,0,0,0-.89,4.75c0,3.33.41,4.26,1.34,5.22a3.25,3.25,0,0,0,2.54.9,4.09,4.09,0,0,0,3.65-2Zm-13.78,4.37h-3.13V12c0-1.55-.13-2.1-.55-2.65a2.14,2.14,0,0,0-1.75-.68,6.93,6.93,0,0,0-4.26,2.2V23.63h-1.59c-1,0-1.54-.75-1.54-1.93V10.81a9.38,9.38,0,0,0-.65-4.09l3-.83a5.5,5.5,0,0,1,.58,2.65,15.73,15.73,0,0,1,2.24-1.69A6.4,6.4,0,0,1,137.74,6a4.32,4.32,0,0,1,4.06,2.45,5.44,5.44,0,0,1,.41,2.16v13Z"/></g></g></svg>